<?xml version="1.0" encoding="utf-8"?>
<!-- Generator: Adobe Illustrator 26.0.0, SVG Export Plug-In . SVG Version: 6.00 Build 0)  -->
<svg version="1.1" id="Livello_1" xmlns="http://www.w3.org/2000/svg" xmlns:xlink="http://www.w3.org/1999/xlink" x="0px" y="0px"
	 viewBox="0 0 283.5 283.5" style="enable-background:new 0 0 283.5 283.5;" xml:space="preserve">
<style type="text/css">
	.st0{fill:#1E1E1C;}
	.st1{fill:none;stroke:#FFFFFF;stroke-width:0.5;stroke-linecap:round;stroke-linejoin:round;stroke-miterlimit:10;}
	.st2{fill:#FFFFFF;}
</style>
<g>
	<g>
		<ellipse class="st0" cx="148" cy="138.5" rx="92.3" ry="95.9"/>
	</g>
	<g>
		<path class="st1" d="M95.3,83.2"/>
	</g>
	<g>
		<g>
			<path class="st2" d="M178.9,133.2c-1,0-2.2-0.1-3.4-0.2c-0.4-0.1-0.6-0.4-0.6-0.8c0.1-0.4,0.4-0.7,0.8-0.6c4.1,0.6,7.2-0.1,9-0.7
				c1.5-0.5,2.4-1.9,2.3-3.6c-1.5-21.8-18.8-38.8-39.3-38.8c-21.5,0-39.1,18.4-39.3,41c4.3,0.3,40.3,2.8,51,1.8
				c0.4,0,0.7,0.2,0.8,0.6c0,0.4-0.2,0.7-0.6,0.8c-11.4,1-51.2-1.8-51.6-1.8l0,0c-0.4,0-0.9-0.4-0.9-1.1
				c0.1-23.5,18.4-42.7,40.7-42.7c21.3,0,39.1,17.6,40.7,40.1c0.2,2.3-1.2,4.4-3.3,5C183.7,132.8,181.6,133.2,178.9,133.2z
				 M108,129.5L108,129.5L108,129.5z"/>
		</g>
		<g>
			<polyline class="st0" points="162.5,100.9 162.5,88.8 156,88.8 			"/>
			<path class="st2" d="M162.5,101.6c-0.4,0-0.7-0.3-0.7-0.7V89.5H156c-0.4,0-0.7-0.3-0.7-0.7s0.3-0.7,0.7-0.7h6.6
				c0.4,0,0.7,0.3,0.7,0.7v12.1C163.2,101.3,162.9,101.6,162.5,101.6z"/>
		</g>
		<g>
			<g>
				<g>
					<polyline class="st0" points="137.7,100.1 137.7,88 144.2,88 					"/>
				</g>
				<g>
					<path class="st2" d="M137.7,100.8c-0.4,0-0.8-0.4-0.8-0.8V87.8c0-0.4,0.4-0.8,0.8-0.8h6.6c0.4,0,0.8,0.4,0.8,0.8
						s-0.4,0.8-0.8,0.8h-5.9V100C138.4,100.5,138.1,100.8,137.7,100.8z"/>
				</g>
			</g>
			<g>
				<g>
					<polyline class="st0" points="144.2,96.2 144.2,81.6 154.8,81.6 154.8,96.2 					"/>
				</g>
				<g>
					<path class="st2" d="M154.8,96.9c-0.4,0-0.8-0.4-0.8-0.8v-14h-9.1V96c0,0.4-0.4,0.8-0.8,0.8s-0.8-0.4-0.8-0.8V81.6
						c0-0.4,0.4-0.8,0.8-0.8h10.6c0.4,0,0.8,0.4,0.8,0.8v14.6C155.7,96.6,155.3,96.9,154.8,96.9z"/>
				</g>
			</g>
			<g>
				<g>
					<path class="st2" d="M124.3,114.6c-0.1,0-0.1,0-0.3,0c-0.4-0.1-0.6-0.6-0.4-1c0.1-0.3,3.3-8.4,10.2-8.4c0.4,0,0.8,0.4,0.8,0.8
						s-0.4,0.8-0.8,0.8c-5.7,0-8.6,7.3-8.6,7.4C124.9,114.5,124.6,114.6,124.3,114.6z"/>
				</g>
			</g>
			<g>
				<g>
					<path class="st2" d="M107.6,130.8c-0.6,0-2.4,0.3-2.8,1.1c-0.3,0.4-0.1,1.1,0.3,2c2.2,4,49.1,7.7,72.6,4.5
						c10.2-1.4,11.9-3.5,12-4.3c0.3-0.8-0.7-2.1-2.6-3.5c-0.4-0.3-0.4-0.7-0.1-1.1c0.3-0.4,0.7-0.4,1.1-0.1c2.6,1.8,3.6,3.5,3.2,5.2
						c-0.6,2.5-5,4.3-13.4,5.4c-6.3,0.8-14.8,1.3-23.7,1.3c-22.6,0-48.2-2.5-50.5-6.6c-0.7-1.4-0.8-2.5-0.3-3.5c1-1.8,3.8-2,4.2-2"
						/>
				</g>
			</g>
			<g>
				<g>
					<path class="st2" d="M150,184.6h-2.5c-4.3,0-8.6-1.4-12.1-4l-8.8-6.6c-5-3.8-7.9-9.8-7.9-16v-17.6c0-0.4,0.4-0.8,0.8-0.8
						s0.8,0.4,0.8,0.8V158c0,5.7,2.8,11.3,7.4,14.8l8.8,6.6c3.2,2.4,7.1,3.8,11.2,3.8h2.6c4.9,0,9.8-2,13.2-5.6l6.7-6.8
						c3.5-3.5,5.3-8.1,5.3-13v-17.2c0-0.4,0.4-0.8,0.8-0.8c0.4,0,0.8,0.4,0.8,0.8v17.2c0,5.3-2.1,10.3-5.7,14.1l-6.7,6.8
						C160.6,182.5,155.3,184.6,150,184.6z"/>
				</g>
			</g>
			<g>
				<g>
					<path class="st2" d="M127,198.8c-0.4,0-0.8-0.4-0.8-0.8v-24.7c0-0.4,0.4-0.8,0.8-0.8s0.8,0.4,0.8,0.8V198
						C127.8,198.5,127.5,198.8,127,198.8z"/>
				</g>
			</g>
			<g>
				<g>
					<path class="st2" d="M168.4,198.8c-0.4,0-0.8-0.4-0.8-0.8v-24.7c0-0.4,0.4-0.8,0.8-0.8s0.8,0.4,0.8,0.8V198
						C169.2,198.5,168.8,198.8,168.4,198.8z"/>
				</g>
			</g>
		</g>
	</g>
	<g>
		<path class="st1" d="M84.3,182"/>
	</g>
</g>
</svg>
