<?xml version="1.0" encoding="utf-8"?>
<!-- Generator: Adobe Illustrator 26.0.0, SVG Export Plug-In . SVG Version: 6.00 Build 0)  -->
<svg version="1.1" id="Livello_1" xmlns="http://www.w3.org/2000/svg" xmlns:xlink="http://www.w3.org/1999/xlink" x="0px" y="0px"
	 viewBox="0 0 283.5 283.5" style="enable-background:new 0 0 283.5 283.5;" xml:space="preserve">
<style type="text/css">
	.st0{fill:#1E1E1C;}
	.st1{fill:#FFFFFF;}
</style>
<g>
	<g>
		<ellipse class="st0" cx="139.4" cy="136.5" rx="91.7" ry="95.9"/>
	</g>
	<g>
		<g>
			<g>
				<rect x="82" y="174.7" class="st1" width="70" height="0.3"/>
				<rect x="81.6" y="174.3" class="st1" width="70.7" height="1"/>
			</g>
		</g>
		<g>
			<g>
				<rect x="101.9" y="96.4" class="st1" width="0.3" height="78.4"/>
				<rect x="101.6" y="96" class="st1" width="0.9" height="79.1"/>
			</g>
		</g>
		<g>
			<g>
				<rect x="123.1" y="96.4" class="st1" width="0.3" height="78.4"/>
				<rect x="122.8" y="96" class="st1" width="0.9" height="79.1"/>
			</g>
		</g>
		<g>
			<g>
				<rect x="90.8" y="167" class="st1" width="58.5" height="0.3"/>
				<rect x="90.5" y="166.7" class="st1" width="59.2" height="1"/>
			</g>
		</g>
		<g>
			<g>
				<polygon class="st1" points="82,129.5 82,129.2 138.7,105 138.9,105.3 				"/>
				<polygon class="st1" points="81.6,130.1 81.6,129 81.8,129 138.9,104.5 139.3,105.5 				"/>
			</g>
		</g>
		<g>
			<g>
				<polygon class="st1" points="81.6,125.2 81.4,124.9 138.2,100.6 138.2,101 				"/>
				<polygon class="st1" points="81.4,125.6 81,124.7 81.3,124.6 138.3,100.2 138.8,101.1 138.4,101.3 				"/>
			</g>
		</g>
		<g>
			<g>
				<path class="st1" d="M191.4,126.2H143V90.8L191.4,126.2z M144.3,124.8h42.8l-42.8-31.3V124.8z"/>
			</g>
		</g>
		<g>
			<g>
				<path class="st1" d="M187.2,175.7H143v-47h44.2V175.7z M144.3,174.2h41.5v-44.2h-41.5V174.2z"/>
			</g>
		</g>
		<g>
			<g>
				<path class="st1" d="M161.4,147.6h-12.7v-12.8h12.7V147.6z M150,146.3h10v-10h-10V146.3z"/>
			</g>
		</g>
		<g>
			<g>
				<path class="st1" d="M180.3,147.6h-12.7v-12.8h12.7V147.6z M168.9,146.3h10v-10h-10V146.3z"/>
			</g>
		</g>
		<g>
			<g>
				<polygon class="st1" points="179.1,122.4 145.7,122.4 145.7,121.2 175.9,121.2 145.3,97.7 146.1,96.9 				"/>
			</g>
		</g>
		<g>
			<g>
				<path class="st1" d="M170.8,175.3h-14v-16.4h14V175.3z M158.3,174h11.3v-13.7h-11.3V174z"/>
			</g>
		</g>
	</g>
</g>
</svg>
