<?xml version="1.0" encoding="utf-8"?>
<!-- Generator: Adobe Illustrator 26.0.0, SVG Export Plug-In . SVG Version: 6.00 Build 0)  -->
<svg version="1.1" id="Livello_1" xmlns="http://www.w3.org/2000/svg" xmlns:xlink="http://www.w3.org/1999/xlink" x="0px" y="0px"
	 viewBox="0 0 283.5 283.5" style="enable-background:new 0 0 283.5 283.5;" xml:space="preserve">
<style type="text/css">
	.st0{fill:#1E1E1C;}
	.st1{fill:#FFFFFF;}
</style>
<g>
	<ellipse class="st0" cx="139.4" cy="137.1" rx="99.5" ry="103.4"/>
</g>
<g>
	<g>
		<path class="st1" d="M178.3,189.3h-76c-0.4,0-0.8-0.3-0.8-0.8V80.3c0-0.4,0.3-0.8,0.8-0.8h76c0.4,0,0.8,0.3,0.8,0.8v108.2
			C179.1,188.9,178.7,189.3,178.3,189.3z M103,187.8h74.5V81.1H103V187.8z"/>
	</g>
	<g>
		<path class="st1" d="M166.5,116.7h-53.9V90.5h53.9V116.7z M114,115.2h50.9V92.1H114V115.2z"/>
	</g>
	<g>
		<g>
			<path class="st1" d="M64.3,180c-0.2,0-0.5-0.1-0.6-0.3c-0.2-0.3-0.2-0.8,0.2-1l43.9-31.3c0.3-0.2,0.6-0.2,0.9,0l35.9,25.1
				l46.1-35c0.3-0.2,0.8-0.2,1.1,0.1c0.3,0.3,0.2,0.8-0.1,1.1L145,173.9c-0.3,0.2-0.6,0.2-0.9,0l-35.9-25.1l-43.4,30.9
				C64.6,179.9,64.4,180,64.3,180z"/>
		</g>
		<g>
			<g>
				<polygon class="st1" points="181,138.6 189.7,139.1 187.8,147.6 199.8,131.4 				"/>
			</g>
			<g>
				<polygon class="st1" points="184.2,138.3 198.2,132.8 190.5,138.5 				"/>
			</g>
		</g>
	</g>
	<g>
		<path class="st1" d="M144.2,131.9h-8.6c-0.2,0-0.4-0.2-0.4-0.4V123c0-0.2,0.2-0.4,0.4-0.4h8.6c0.2,0,0.4,0.2,0.4,0.4v8.6
			C144.6,131.8,144.4,131.9,144.2,131.9z M136,131.2h7.8v-7.8H136V131.2z"/>
	</g>
	<g>
		<path class="st1" d="M162.8,131.9h-8.6c-0.2,0-0.4-0.2-0.4-0.4V123c0-0.2,0.2-0.4,0.4-0.4h8.6c0.2,0,0.4,0.2,0.4,0.4v8.6
			C163.2,131.8,163.1,131.9,162.8,131.9z M154.7,131.2h7.8v-7.8h-7.8V131.2z"/>
	</g>
	<g>
		<path class="st1" d="M125.7,131.8h-8.6c-0.2,0-0.4-0.2-0.4-0.4v-8.6c0-0.2,0.2-0.4,0.4-0.4h8.6c0.2,0,0.4,0.2,0.4,0.4v8.6
			C126.1,131.6,125.9,131.8,125.7,131.8z M117.5,131h7.8v-7.8h-7.8V131z"/>
	</g>
	<g>
		<path class="st1" d="M144.1,148.8h-8.6c-0.2,0-0.4-0.2-0.4-0.4v-8.6c0-0.2,0.2-0.4,0.4-0.4h8.6c0.2,0,0.4,0.2,0.4,0.4v8.6
			C144.4,148.6,144.3,148.8,144.1,148.8z M135.9,148h7.8v-7.8h-7.8V148z"/>
	</g>
	<g>
		<path class="st1" d="M162.7,148.8h-8.6c-0.2,0-0.4-0.2-0.4-0.4v-8.6c0-0.2,0.2-0.4,0.4-0.4h8.6c0.2,0,0.4,0.2,0.4,0.4v8.6
			C163.1,148.6,162.9,148.8,162.7,148.8z M154.5,148h7.8v-7.8h-7.8V148z"/>
	</g>
	<g>
		<path class="st1" d="M125.6,148.6H117c-0.2,0-0.4-0.2-0.4-0.4v-8.6c0-0.2,0.2-0.4,0.4-0.4h8.6c0.2,0,0.4,0.2,0.4,0.4v8.6
			C126,148.5,125.8,148.6,125.6,148.6z M117.4,147.9h7.8v-7.8h-7.8V147.9z"/>
	</g>
</g>
</svg>
