<?xml version="1.0" encoding="utf-8"?>
<!-- Generator: Adobe Illustrator 26.0.0, SVG Export Plug-In . SVG Version: 6.00 Build 0)  -->
<svg version="1.1" id="Livello_1" xmlns="http://www.w3.org/2000/svg" xmlns:xlink="http://www.w3.org/1999/xlink" x="0px" y="0px"
	 viewBox="0 0 283.5 283.5" style="enable-background:new 0 0 283.5 283.5;" xml:space="preserve">
<style type="text/css">
	.st0{fill:#1E1E1C;}
	.st1{fill:#FFFFFF;}
</style>
<g>
	<ellipse class="st0" cx="143.7" cy="136.5" rx="117.3" ry="113.1"/>
</g>
<g>
	<g>
		<g>
			<rect x="70.3" y="181.5" class="st1" width="89.5" height="0.3"/>
			<rect x="69.8" y="181.1" class="st1" width="90.4" height="1.2"/>
		</g>
	</g>
	<g>
		<g>
			<rect x="95.8" y="89.2" class="st1" width="0.4" height="92.5"/>
			<rect x="95.4" y="88.7" class="st1" width="1.2" height="93.3"/>
		</g>
	</g>
	<g>
		<g>
			<rect x="122.9" y="89.2" class="st1" width="0.4" height="92.5"/>
			<rect x="122.5" y="88.7" class="st1" width="1.2" height="93.3"/>
		</g>
	</g>
	<g>
		<g>
			<rect x="81.6" y="172.5" class="st1" width="74.8" height="0.3"/>
			<rect x="81.2" y="172.1" class="st1" width="75.7" height="1.2"/>
		</g>
	</g>
	<g>
		<g>
			<polygon class="st1" points="70.3,128.3 70.3,127.9 142.8,99.3 143,99.7 			"/>
			<polygon class="st1" points="69.8,128.9 69.8,127.7 70.1,127.6 143,98.8 143.6,99.9 			"/>
		</g>
	</g>
	<g>
		<g>
			<polygon class="st1" points="69.8,123.2 69.6,122.8 142.1,94.2 142.2,94.6 			"/>
			<polygon class="st1" points="69.5,123.7 69,122.6 69.4,122.5 142.3,93.7 142.9,94.8 142.4,95 			"/>
		</g>
	</g>
	<g>
		<g>
			<path class="st1" d="M210.2,124.3l-61.9,0l0-41.7L210.2,124.3z M150,122.7h54.7L150,85.8V122.7z"/>
		</g>
	</g>
	<g>
		<g>
			<path class="st1" d="M204.8,182.7h-56.5l0-55.4l56.5,0L204.8,182.7z M150,181h53l0-52.1h-53L150,181z"/>
		</g>
	</g>
	<g>
		<g>
			<path class="st1" d="M171.8,149.6h-16.3v-15.1h16.3V149.6z M157.3,148h12.8v-11.8h-12.8V148z"/>
		</g>
	</g>
	<g>
		<g>
			<path class="st1" d="M196,149.6h-16.3v-15.1H196V149.6z M181.4,148h12.8v-11.8h-12.8V148z"/>
		</g>
	</g>
	<g>
		<g>
			<polygon class="st1" points="194.5,119.9 151.8,119.9 151.8,118.4 190.3,118.4 151.3,90.8 152.2,89.8 			"/>
		</g>
	</g>
	<g>
		<g>
			<path class="st1" d="M183.9,182.3H166v-19.4h17.9L183.9,182.3z M167.8,180.7h14.4v-16.1h-14.4V180.7z"/>
		</g>
	</g>
</g>
</svg>
