<?xml version="1.0" encoding="utf-8"?>
<!-- Generator: Adobe Illustrator 26.0.0, SVG Export Plug-In . SVG Version: 6.00 Build 0)  -->
<svg version="1.1" id="Livello_1" xmlns="http://www.w3.org/2000/svg" xmlns:xlink="http://www.w3.org/1999/xlink" x="0px" y="0px"
	 viewBox="0 0 1208 255" style="enable-background:new 0 0 1208 255;" xml:space="preserve">
<style type="text/css">
	.st0{fill:#FFFFFF;}
	.st1{fill:#FFFFFF;stroke:#FFFFFF;stroke-width:0.25;stroke-miterlimit:10;}
	.st2{fill:none;stroke:#FFFFFF;stroke-width:0.25;stroke-miterlimit:10;}
	.st3{fill:#1D1D1B;}
	.st4{fill:#FFFFFF;stroke:#FFFFFF;stroke-width:0.5;stroke-miterlimit:10;}
	.st5{fill:none;stroke:#FFFFFF;stroke-miterlimit:10;}
	.st6{fill:none;stroke:#FFFFFF;stroke-width:0.5;stroke-linecap:round;stroke-linejoin:round;}
	.st7{fill:none;stroke:#FFFFFF;stroke-width:0.5;stroke-linecap:round;stroke-linejoin:round;stroke-miterlimit:10;}
	.st8{fill:none;stroke:#FFFFFF;stroke-linecap:round;stroke-linejoin:round;stroke-miterlimit:10;}
	.st9{fill:#1D1D1B;stroke:#FFFFFF;stroke-linecap:round;stroke-linejoin:round;stroke-miterlimit:10;}
	.st10{fill:none;}
	.st11{font-family:'Poppins-Regular';}
	.st12{font-size:20.2503px;}
	.st13{fill:none;stroke:#FFFFFF;stroke-linecap:round;stroke-linejoin:round;}
</style>
<g>
	<g>
		<path class="st0" d="M29,418.7c3.2,0,3.2-5,0-5C25.8,413.7,25.8,418.7,29,418.7L29,418.7z"/>
	</g>
</g>
<g>
	<g>
		<path class="st0" d="M183.7,425.2c3.2,0,3.2-5,0-5C180.5,420.2,180.5,425.2,183.7,425.2L183.7,425.2z"/>
	</g>
</g>
<g>
	<g>
		<rect x="29" y="136" class="st1" width="61" height="0.3"/>
	</g>
	<g>
		<rect x="46.4" y="68" class="st1" width="0.3" height="68.1"/>
	</g>
	<g>
		<rect x="64.8" y="68" class="st1" width="0.3" height="68.1"/>
	</g>
	<g>
		<rect x="36.7" y="129.4" class="st1" width="51" height="0.3"/>
	</g>
	<g>
		<polygon class="st1" points="29,96.9 28.9,96.6 78.4,75.6 78.5,75.8 		"/>
	</g>
	<g>
		<polygon class="st1" points="28.6,93.1 28.5,92.8 78,71.8 78.1,72 		"/>
	</g>
	<g>
		<polygon class="st2" points="82.8,64.4 82.8,93.3 122.5,93.3 		"/>
	</g>
	<g>
		<rect x="82.8" y="96.7" class="st2" width="37.3" height="39.5"/>
	</g>
	<g>
		<rect x="87.7" y="102.1" class="st2" width="9.9" height="9.9"/>
	</g>
	<g>
		<rect x="104.2" y="102.1" class="st2" width="9.9" height="9.9"/>
	</g>
	<g>
		<polygon class="st0" points="113.7,90.6 84.5,90.6 84.5,89.6 110.8,89.6 84.2,69.3 84.8,68.5 		"/>
	</g>
	<g>
		<rect x="94.9" y="122.9" class="st2" width="11" height="13"/>
	</g>
</g>
<ellipse class="st3" cx="290.1" cy="108.3" rx="66.2" ry="68.8"/>
<ellipse class="st3" cx="104.6" cy="107.2" rx="66.2" ry="68.8"/>
<g>
	<g>
		<rect x="64.9" y="134.6" class="st4" width="50.5" height="0.2"/>
	</g>
	<g>
		<rect x="79.3" y="78.4" class="st4" width="0.2" height="56.3"/>
	</g>
	<g>
		<rect x="94.6" y="78.4" class="st4" width="0.2" height="56.3"/>
	</g>
	<g>
		<rect x="71.3" y="129.1" class="st4" width="42.2" height="0.2"/>
	</g>
	<g>
		<polygon class="st4" points="64.9,102.2 64.9,102 105.8,84.6 105.9,84.8 		"/>
	</g>
	<g>
		<polygon class="st4" points="64.6,99.1 64.5,98.9 105.4,81.5 105.5,81.7 		"/>
	</g>
	<g>
		<polygon class="st5" points="109.4,75.4 109.4,99.3 142.3,99.3 		"/>
	</g>
	<g>
		<rect x="109.4" y="102.1" class="st5" width="30.9" height="32.7"/>
	</g>
	<g>
		<rect x="113.5" y="106.5" class="st5" width="8.2" height="8.2"/>
	</g>
	<g>
		<rect x="127.1" y="106.5" class="st5" width="8.2" height="8.2"/>
	</g>
	<g>
		<polygon class="st0" points="135,97.1 110.9,97.1 110.9,96.2 132.6,96.2 110.6,79.4 111.1,78.8 		"/>
	</g>
	<g>
		<rect x="119.4" y="123.8" class="st5" width="9.1" height="10.8"/>
	</g>
</g>
<g>
	<g>
		<circle class="st5" cx="261.7" cy="114.5" r="6.8"/>
	</g>
	<g>
		<path class="st0" d="M273.1,135.5h-1.6v-3.6c0-5.2-4.3-9.5-9.5-9.5s-9.5,4.3-9.5,9.5v3.6H251v-3.6c0-6.1,5-11.1,11.1-11.1
			c6.1,0,11.1,5,11.1,11.1V135.5z"/>
	</g>
	<g>
		<circle class="st5" cx="288.4" cy="79.5" r="6.8"/>
	</g>
	<g>
		<path class="st0" d="M299.8,100.6h-1.6v-3.6c0-5.2-4.3-9.5-9.5-9.5s-9.5,4.3-9.5,9.5v3.6h-1.6v-3.6c0-6.1,5-11.1,11.1-11.1
			c6.1,0,11.1,5,11.1,11.1V100.6z"/>
	</g>
	<g>
		<circle class="st5" cx="318.5" cy="115.9" r="6.8"/>
	</g>
	<g>
		<path class="st0" d="M329.9,137h-1.6v-3.6c0-5.2-4.3-9.5-9.5-9.5s-9.5,4.3-9.5,9.5v3.6h-1.6v-3.6c0-6.1,5-11.1,11.1-11.1
			s11.1,5,11.1,11.1V137z"/>
	</g>
</g>
<g>
	<g>
		<path class="st6" d="M260.8,96.1c0,0,0.2-8,8.3-10.7"/>
		<g>
			<polygon class="st0" points="272.6,84.6 268.2,87.7 268.9,85.5 267.3,83.8 			"/>
		</g>
	</g>
</g>
<g>
	<g>
		<path class="st6" d="M299.6,129.7c0,0-6.2,4.9-13.5,0.6"/>
		<g>
			<polygon class="st0" points="283.3,128.1 288.5,129.5 286.4,130.4 286.1,132.7 			"/>
		</g>
	</g>
</g>
<g>
	<g>
		<path class="st6" d="M318.1,97.4c0,0-0.2-8-8.3-10.7"/>
		<g>
			<polygon class="st0" points="306.4,86 311.7,85.2 310.1,86.9 310.8,89.1 			"/>
		</g>
	</g>
</g>
<ellipse class="st3" cx="484.4" cy="108.8" rx="66.2" ry="68.8"/>
<path class="st7" d="M446.6,69.2"/>
<g>
	<path class="st8" d="M492.6,104.2c-7.7,0.7-34.1-1.1-36.9-1.3c-0.1,0-0.2-0.1-0.2-0.3c0.1-16.7,12.9-30.1,28.7-30.1
		c15.2,0,27.6,12.5,28.7,28.3c0.1,1.4-0.7,2.7-2,3.1c-1.5,0.5-3.8,0.9-6.7,0.5"/>
	<polyline class="st9" points="494.8,81.9 494.8,73.2 490.1,73.2 	"/>
	<g>
		<g>
			<polyline class="st3" points="477,81.3 477,72.6 481.7,72.6 			"/>
			<path class="st0" d="M477,81.8c-0.3,0-0.6-0.3-0.6-0.6v-8.7c0-0.3,0.3-0.6,0.6-0.6h4.7c0.3,0,0.6,0.3,0.6,0.6
				c0,0.3-0.3,0.6-0.6,0.6h-4.2v8.1C477.5,81.6,477.3,81.8,477,81.8z"/>
		</g>
		<g>
			<polyline class="st3" points="481.7,78.5 481.7,68 489.3,68 489.3,78.5 			"/>
			<path class="st0" d="M489.3,79c-0.3,0-0.6-0.3-0.6-0.6v-10h-6.5v10c0,0.3-0.3,0.6-0.6,0.6s-0.6-0.3-0.6-0.6V68
				c0-0.3,0.3-0.6,0.6-0.6h7.6c0.3,0,0.6,0.3,0.6,0.6v10.5C489.9,78.8,489.6,79,489.3,79z"/>
		</g>
		<g>
			<path class="st0" d="M467.4,91.7c-0.1,0-0.1,0-0.2,0c-0.3-0.1-0.4-0.4-0.3-0.7c0.1-0.2,2.4-6,7.3-6c0.3,0,0.6,0.3,0.6,0.6
				s-0.3,0.6-0.6,0.6c-4.1,0-6.2,5.2-6.2,5.3C467.8,91.6,467.6,91.7,467.4,91.7z"/>
		</g>
		<g>
			<path class="st0" d="M455.4,103.3c-0.4,0-1.7,0.2-2,0.8c-0.2,0.3-0.1,0.8,0.2,1.4c1.6,2.9,35.2,5.5,52.1,3.2
				c7.3-1,8.5-2.5,8.6-3.1c0.2-0.6-0.5-1.5-1.9-2.5c-0.3-0.2-0.3-0.5-0.1-0.8c0.2-0.3,0.5-0.3,0.8-0.1c1.9,1.3,2.6,2.5,2.3,3.7
				c-0.4,1.8-3.6,3.1-9.6,3.9c-4.5,0.6-10.6,0.9-17,0.9c-16.2,0-34.6-1.8-36.2-4.7c-0.5-1-0.6-1.8-0.2-2.5c0.7-1.3,2.7-1.4,3-1.4"/>
		</g>
		<g>
			<path class="st0" d="M485.8,141.9H484c-3.1,0-6.2-1-8.7-2.9l-6.3-4.7c-3.6-2.7-5.7-7-5.7-11.5v-12.6c0-0.3,0.3-0.6,0.6-0.6
				s0.6,0.3,0.6,0.6v12.6c0,4.1,2,8.1,5.3,10.6l6.3,4.7c2.3,1.7,5.1,2.7,8,2.7h1.9c3.5,0,7-1.4,9.5-4l4.8-4.9
				c2.5-2.5,3.8-5.8,3.8-9.3v-12.3c0-0.3,0.3-0.6,0.6-0.6c0.3,0,0.6,0.3,0.6,0.6v12.3c0,3.8-1.5,7.4-4.1,10.1l-4.8,4.9
				C493.4,140.4,489.6,141.9,485.8,141.9z"/>
		</g>
		<g>
			<path class="st0" d="M469.3,152.1c-0.3,0-0.6-0.3-0.6-0.6v-17.7c0-0.3,0.3-0.6,0.6-0.6c0.3,0,0.6,0.3,0.6,0.6v17.7
				C469.9,151.9,469.7,152.1,469.3,152.1z"/>
		</g>
		<g>
			<path class="st0" d="M499,152.1c-0.3,0-0.6-0.3-0.6-0.6v-17.7c0-0.3,0.3-0.6,0.6-0.6s0.6,0.3,0.6,0.6v17.7
				C499.6,151.9,499.3,152.1,499,152.1z"/>
		</g>
	</g>
</g>
<path class="st7" d="M438.7,140"/>
<rect x="36.5" y="190.6" class="st10" width="207.6" height="49.5"/>
<text transform="matrix(1 0 0 1 36.4708 205.5823)" class="st3 st11 st12">progettazione </text>
<rect x="212.5" y="189.9" class="st10" width="207.6" height="49.5"/>
<text transform="matrix(1 0 0 1 212.5137 204.9271)" class="st3 st11 st12">direzione lavori</text>
<rect x="388.7" y="190.1" class="st10" width="207.6" height="49.5"/>
<text transform="matrix(1 0 0 1 388.6739 205.1019)" class="st3 st11 st12">sicurezza dei lavori</text>
<path class="st7" d="M1047.6,62"/>
<ellipse class="st3" cx="883.8" cy="103.7" rx="66.2" ry="68.8"/>
<ellipse class="st3" cx="694.3" cy="102.5" rx="66.2" ry="68.8"/>
<ellipse class="st3" cx="1088.5" cy="104.2" rx="66.2" ry="68.8"/>
<rect x="618.9" y="187.1" class="st10" width="207.6" height="49.5"/>
<text transform="matrix(1 0 0 1 618.855 202.0921)" class="st3 st11 st12">computo lavori </text>
<rect x="831" y="190.3" class="st10" width="207.6" height="49.5"/>
<text transform="matrix(1 0 0 1 831.023 205.3118)" class="st3 st11 st12">contabilità</text>
<rect x="983.8" y="185.5" class="st10" width="207.6" height="49.5"/>
<text transform="matrix(1 0 0 1 999.6177 200.4866)"><tspan x="0" y="0" class="st3 st11 st12">collaudo agibilità</tspan><tspan x="31.2" y="29.2" class="st3 st11 st12">delle opere  </tspan></text>
<g>
	<g>
		<path class="st0" d="M717.3,114.9h-76.9c-0.2,0-0.5-0.2-0.5-0.4c-0.1-0.2,0-0.5,0.2-0.6L717,57.3c0.2-0.1,0.4-0.1,0.6,0
			c0.2,0.1,0.3,0.3,0.3,0.5v56.6C717.9,114.7,717.6,114.9,717.3,114.9z M642.1,113.8h74.6V58.8L642.1,113.8z"/>
	</g>
	<g>
		<path class="st0" d="M712.2,108.8h-48.8c-0.2,0-0.5-0.2-0.5-0.4c-0.1-0.2,0-0.5,0.2-0.6l48.8-36c0.2-0.1,0.4-0.1,0.6,0
			c0.2,0.1,0.3,0.3,0.3,0.5v36C712.8,108.5,712.5,108.8,712.2,108.8z M665.1,107.7h46.5V73.4L665.1,107.7z"/>
	</g>
	<g>
		<path class="st0" d="M729.4,145.6h-52c-0.3,0-0.6-0.3-0.6-0.6v-28.1c0-0.3,0.3-0.6,0.6-0.6s0.6,0.3,0.6,0.6v27.5h50.9V74.2h-11.4
			c-0.3,0-0.6-0.3-0.6-0.6s0.3-0.6,0.6-0.6h11.9c0.3,0,0.6,0.3,0.6,0.6V145C730,145.3,729.7,145.6,729.4,145.6z"/>
	</g>
	<g>
		<path class="st0" d="M674.1,114.5c-0.1,0-0.1-0.1-0.1-0.1v-2.5c0-0.1,0.1-0.1,0.1-0.1s0.1,0.1,0.1,0.1v2.5
			C674.2,114.4,674.2,114.5,674.1,114.5z"/>
	</g>
	<g>
		<path class="st0" d="M677.2,114.4c-0.1,0-0.1-0.1-0.1-0.1v-2.5c0-0.1,0.1-0.1,0.1-0.1s0.1,0.1,0.1,0.1v2.5
			C677.4,114.3,677.3,114.4,677.2,114.4z"/>
	</g>
	<g>
		<path class="st0" d="M680.2,114.4c-0.1,0-0.1-0.1-0.1-0.1v-2.5c0-0.1,0.1-0.1,0.1-0.1s0.1,0.1,0.1,0.1v2.5
			C680.3,114.4,680.2,114.4,680.2,114.4z"/>
	</g>
	<g>
		<path class="st0" d="M683.3,114.4c-0.1,0-0.1-0.1-0.1-0.1v-2.5c0-0.1,0.1-0.1,0.1-0.1s0.1,0.1,0.1,0.1v2.5
			C683.5,114.3,683.4,114.4,683.3,114.4z"/>
	</g>
	<g>
		<path class="st0" d="M686.1,114.5c-0.1,0-0.1-0.1-0.1-0.1v-2.5c0-0.1,0.1-0.1,0.1-0.1s0.1,0.1,0.1,0.1v2.5
			C686.3,114.4,686.2,114.5,686.1,114.5z"/>
	</g>
	<g>
		<path class="st0" d="M689.3,114.4c-0.1,0-0.1-0.1-0.1-0.1v-2.5c0-0.1,0.1-0.1,0.1-0.1s0.1,0.1,0.1,0.1v2.5
			C689.4,114.3,689.4,114.4,689.3,114.4z"/>
	</g>
	<g>
		<path class="st0" d="M692.2,114.4c-0.1,0-0.1-0.1-0.1-0.1v-2.5c0-0.1,0.1-0.1,0.1-0.1s0.1,0.1,0.1,0.1v2.5
			C692.3,114.4,692.3,114.4,692.2,114.4z"/>
	</g>
	<g>
		<path class="st0" d="M695.4,114.3c-0.1,0-0.1-0.1-0.1-0.1v-2.5c0-0.1,0.1-0.1,0.1-0.1s0.1,0.1,0.1,0.1v2.5
			C695.5,114.3,695.4,114.3,695.4,114.3z"/>
	</g>
	<g>
		<path class="st0" d="M697.7,114.4c-0.1,0-0.1-0.1-0.1-0.1v-2.5c0-0.1,0.1-0.1,0.1-0.1s0.1,0.1,0.1,0.1v2.5
			C697.9,114.3,697.8,114.4,697.7,114.4z"/>
	</g>
	<g>
		<path class="st0" d="M700.9,114.3c-0.1,0-0.1-0.1-0.1-0.1v-2.5c0-0.1,0.1-0.1,0.1-0.1s0.1,0.1,0.1,0.1v2.5
			C701.1,114.2,701,114.3,700.9,114.3z"/>
	</g>
	<g>
		<path class="st0" d="M703.8,114.3c-0.1,0-0.1-0.1-0.1-0.1v-2.5c0-0.1,0.1-0.1,0.1-0.1s0.1,0.1,0.1,0.1v2.5
			C704,114.3,703.9,114.3,703.8,114.3z"/>
	</g>
	<g>
		<path class="st0" d="M707,114.3c-0.1,0-0.1-0.1-0.1-0.1v-2.5c0-0.1,0.1-0.1,0.1-0.1s0.1,0.1,0.1,0.1v2.5
			C707.1,114.2,707.1,114.3,707,114.3z"/>
	</g>
</g>
<g>
	<rect x="859.1" y="65.9" class="st8" width="50.6" height="72"/>
	<rect x="866.4" y="73.2" class="st5" width="34.9" height="16.4"/>
	<g>
		<polyline class="st13" points="833.8,131.7 863,110.9 887.2,127.8 918.2,104.3 		"/>
		<g>
			<polygon class="st0" points="911.5,104.7 917.3,105 916,110.7 924,99.9 			"/>
			<polygon class="st0" points="913.6,104.5 922.9,100.8 917.8,104.6 			"/>
		</g>
	</g>
	<rect x="881.3" y="94.3" class="st7" width="5.7" height="5.7"/>
	<rect x="893.7" y="94.3" class="st7" width="5.7" height="5.7"/>
	<rect x="869" y="94.2" class="st7" width="5.7" height="5.7"/>
	<rect x="881.2" y="105.5" class="st7" width="5.7" height="5.7"/>
	<rect x="893.6" y="105.5" class="st7" width="5.7" height="5.7"/>
	<rect x="868.9" y="105.4" class="st7" width="5.7" height="5.7"/>
</g>
<g>
	<g>
		<path class="st0" d="M1121.4,145.1h-43.8c-0.3,0-0.5-0.2-0.5-0.5V83.5c0-0.3,0.2-0.5,0.5-0.5h43.8c0.3,0,0.5,0.2,0.5,0.5v61.2
			C1121.9,144.9,1121.6,145.1,1121.4,145.1z M1078.1,144.1h42.8V83.9h-42.8V144.1z"/>
	</g>
	<g>
		<line class="st3" x1="1084.9" y1="97.7" x2="1114.7" y2="97.7"/>
		<path class="st0" d="M1114.7,97.9h-29.8c-0.1,0-0.2-0.1-0.2-0.2c0-0.1,0.1-0.2,0.2-0.2h29.8c0.1,0,0.2,0.1,0.2,0.2
			C1114.9,97.8,1114.8,97.9,1114.7,97.9z"/>
	</g>
	<g>
		<line class="st3" x1="1084.7" y1="104.2" x2="1114.5" y2="104.2"/>
		<path class="st0" d="M1114.5,104.4h-29.8c-0.1,0-0.2-0.1-0.2-0.2c0-0.1,0.1-0.2,0.2-0.2h29.8c0.1,0,0.2,0.1,0.2,0.2
			C1114.8,104.3,1114.7,104.4,1114.5,104.4z"/>
	</g>
	<g>
		<line class="st3" x1="1084.8" y1="109.9" x2="1114.6" y2="109.9"/>
		<path class="st0" d="M1114.6,110.1h-29.8c-0.1,0-0.2-0.1-0.2-0.2s0.1-0.2,0.2-0.2h29.8c0.1,0,0.2,0.1,0.2,0.2
			S1114.7,110.1,1114.6,110.1z"/>
	</g>
	<g>
		<line class="st3" x1="1084.7" y1="116.4" x2="1114.4" y2="116.4"/>
		<path class="st0" d="M1114.4,116.6h-29.8c-0.1,0-0.2-0.1-0.2-0.2s0.1-0.2,0.2-0.2h29.8c0.1,0,0.2,0.1,0.2,0.2
			S1114.6,116.6,1114.4,116.6z"/>
	</g>
	<g>
		<g>
			<rect x="1058.1" y="73.9" class="st3" width="44.7" height="62.4"/>
			<path class="st0" d="M1103.3,136.8h-45.7V73.4h45.7V136.8z M1058.6,135.8h43.7V74.4h-43.7V135.8z"/>
		</g>
		<g>
			<g>
				<line class="st3" x1="1065.2" y1="89.4" x2="1095" y2="89.4"/>
				<path class="st0" d="M1095,89.7h-29.8c-0.1,0-0.2-0.1-0.2-0.2s0.1-0.2,0.2-0.2h29.8c0.1,0,0.2,0.1,0.2,0.2
					S1095.2,89.7,1095,89.7z"/>
			</g>
			<g>
				<line class="st3" x1="1065.1" y1="95.9" x2="1094.9" y2="95.9"/>
				<path class="st0" d="M1094.9,96.2h-29.8c-0.1,0-0.2-0.1-0.2-0.2c0-0.1,0.1-0.2,0.2-0.2h29.8c0.1,0,0.2,0.1,0.2,0.2
					C1095.1,96.1,1095,96.2,1094.9,96.2z"/>
			</g>
			<g>
				<line class="st3" x1="1065.2" y1="101.6" x2="1094.9" y2="101.6"/>
				<path class="st0" d="M1094.9,101.9h-29.8c-0.1,0-0.2-0.1-0.2-0.2c0-0.1,0.1-0.2,0.2-0.2h29.8c0.1,0,0.2,0.1,0.2,0.2
					C1095.2,101.8,1095.1,101.9,1094.9,101.9z"/>
			</g>
			<g>
				<line class="st3" x1="1065" y1="108.2" x2="1094.8" y2="108.2"/>
				<path class="st0" d="M1094.8,108.4H1065c-0.1,0-0.2-0.1-0.2-0.2c0-0.1,0.1-0.2,0.2-0.2h29.8c0.1,0,0.2,0.1,0.2,0.2
					C1095,108.3,1094.9,108.4,1094.8,108.4z"/>
			</g>
			<g>
				<line class="st3" x1="1065.2" y1="114.4" x2="1095" y2="114.4"/>
				<path class="st0" d="M1095,114.7h-29.8c-0.1,0-0.2-0.1-0.2-0.2c0-0.1,0.1-0.2,0.2-0.2h29.8c0.1,0,0.2,0.1,0.2,0.2
					C1095.2,114.6,1095.1,114.7,1095,114.7z"/>
			</g>
			<g>
				<line class="st3" x1="1065" y1="121" x2="1094.8" y2="121"/>
				<path class="st0" d="M1094.8,121.2H1065c-0.1,0-0.2-0.1-0.2-0.2c0-0.1,0.1-0.2,0.2-0.2h29.8c0.1,0,0.2,0.1,0.2,0.2
					C1095.1,121.1,1094.9,121.2,1094.8,121.2z"/>
			</g>
			<g>
				<line class="st3" x1="1065.1" y1="126.7" x2="1094.9" y2="126.7"/>
				<path class="st0" d="M1094.9,126.9h-29.8c-0.1,0-0.2-0.1-0.2-0.2c0-0.1,0.1-0.2,0.2-0.2h29.8c0.1,0,0.2,0.1,0.2,0.2
					C1095.1,126.8,1095,126.9,1094.9,126.9z"/>
			</g>
		</g>
	</g>
</g>
</svg>
