<?xml version="1.0" encoding="utf-8"?>
<!-- Generator: Adobe Illustrator 26.0.0, SVG Export Plug-In . SVG Version: 6.00 Build 0)  -->
<svg version="1.1" id="Livello_1" xmlns="http://www.w3.org/2000/svg" xmlns:xlink="http://www.w3.org/1999/xlink" x="0px" y="0px"
	 viewBox="0 0 283.5 283.5" style="enable-background:new 0 0 283.5 283.5;" xml:space="preserve">
<style type="text/css">
	.st0{fill:#1E1E1C;}
	.st1{fill:#FFFFFF;}
</style>
<g>
	<ellipse class="st0" cx="140.6" cy="142" rx="92.7" ry="96.4"/>
</g>
<g>
	<g>
		<g>
			<path class="st1" d="M175,159.9H61.4c-0.3,0-0.7-0.3-0.7-0.6c-0.1-0.3,0-0.7,0.3-0.9l113.5-83.6c0.3-0.1,0.6-0.1,0.9,0
				c0.3,0.1,0.4,0.4,0.4,0.7v83.6C175.8,159.6,175.4,159.9,175,159.9z M63.9,158.3H174V77.1L63.9,158.3z"/>
		</g>
	</g>
	<g>
		<g>
			<path class="st1" d="M167.4,150.9h-72c-0.3,0-0.7-0.3-0.7-0.6c-0.1-0.3,0-0.7,0.3-0.9l72-53.1c0.3-0.1,0.6-0.1,0.9,0
				c0.3,0.1,0.4,0.4,0.4,0.7v53.1C168.3,150.5,167.9,150.9,167.4,150.9z M97.9,149.3h68.6V98.7L97.9,149.3z"/>
		</g>
	</g>
	<g>
		<g>
			<path class="st1" d="M192.8,205.3H116c-0.4,0-0.9-0.4-0.9-0.9v-41.5c0-0.4,0.4-0.9,0.9-0.9s0.9,0.4,0.9,0.9v40.6H192V99.9h-16.8
				c-0.4,0-0.9-0.4-0.9-0.9c0-0.4,0.4-0.9,0.9-0.9h17.6c0.4,0,0.9,0.4,0.9,0.9v105.4C193.7,204.8,193.3,205.3,192.8,205.3z"/>
		</g>
	</g>
	<g>
		<g>
			<path class="st1" d="M111.2,159.3c-0.1,0-0.1-0.1-0.1-0.1v-3.7c0-0.1,0.1-0.1,0.1-0.1l0.1,0.1v3.7
				C111.3,159.2,111.3,159.3,111.2,159.3z"/>
		</g>
	</g>
	<g>
		<g>
			<path class="st1" d="M115.8,159.2c-0.1,0-0.1-0.1-0.1-0.1v-3.7c0-0.1,0.1-0.1,0.1-0.1l0.1,0.1v3.7
				C116.1,159.1,115.9,159.2,115.8,159.2z"/>
		</g>
	</g>
	<g>
		<g>
			<path class="st1" d="M120.2,159.2c-0.1,0-0.1-0.1-0.1-0.1v-3.7c0-0.1,0.1-0.1,0.1-0.1l0.1,0.1v3.7
				C120.3,159.2,120.2,159.2,120.2,159.2z"/>
		</g>
	</g>
	<g>
		<g>
			<path class="st1" d="M124.8,159.2c-0.1,0-0.1-0.1-0.1-0.1v-3.7c0-0.1,0.1-0.1,0.1-0.1l0.1,0.1v3.7
				C125.1,159.1,124.9,159.2,124.8,159.2z"/>
		</g>
	</g>
	<g>
		<g>
			<path class="st1" d="M128.9,159.3c-0.1,0-0.1-0.1-0.1-0.1v-3.7c0-0.1,0.1-0.1,0.1-0.1l0.1,0.1v3.7
				C129.2,159.2,129,159.3,128.9,159.3z"/>
		</g>
	</g>
	<g>
		<g>
			<path class="st1" d="M133.6,159.2c-0.1,0-0.1-0.1-0.1-0.1v-3.7c0-0.1,0.1-0.1,0.1-0.1l0.1,0.1v3.7
				C133.8,159.1,133.8,159.2,133.6,159.2z"/>
		</g>
	</g>
	<g>
		<g>
			<path class="st1" d="M137.9,159.2c-0.1,0-0.1-0.1-0.1-0.1v-3.7c0-0.1,0.1-0.1,0.1-0.1l0.1,0.1v3.7
				C138,159.2,138,159.2,137.9,159.2z"/>
		</g>
	</g>
	<g>
		<g>
			<path class="st1" d="M142.6,159.1c-0.1,0-0.1-0.1-0.1-0.1v-3.7c0-0.1,0.1-0.1,0.1-0.1l0.1,0.1v3.7
				C142.8,159.1,142.6,159.1,142.6,159.1z"/>
		</g>
	</g>
	<g>
		<g>
			<path class="st1" d="M146,159.2c-0.1,0-0.1-0.1-0.1-0.1v-3.7c0-0.1,0.1-0.1,0.1-0.1l0.1,0.1v3.7
				C146.3,159.1,146.2,159.2,146,159.2z"/>
		</g>
	</g>
	<g>
		<g>
			<path class="st1" d="M150.7,159.1c-0.1,0-0.1-0.1-0.1-0.1v-3.7c0-0.1,0.1-0.1,0.1-0.1l0.1,0.1v3.7
				C151,158.9,150.9,159.1,150.7,159.1z"/>
		</g>
	</g>
	<g>
		<g>
			<path class="st1" d="M155,159.1c-0.1,0-0.1-0.1-0.1-0.1v-3.7c0-0.1,0.1-0.1,0.1-0.1l0.1,0.1v3.7
				C155.3,159.1,155.2,159.1,155,159.1z"/>
		</g>
	</g>
	<g>
		<g>
			<path class="st1" d="M159.7,159.1c-0.1,0-0.1-0.1-0.1-0.1v-3.7c0-0.1,0.1-0.1,0.1-0.1l0.1,0.1v3.7
				C159.9,158.9,159.9,159.1,159.7,159.1z"/>
		</g>
	</g>
</g>
</svg>
