<?xml version="1.0" encoding="utf-8"?>
<!-- Generator: Adobe Illustrator 26.0.0, SVG Export Plug-In . SVG Version: 6.00 Build 0)  -->
<svg version="1.1" id="Livello_1" xmlns="http://www.w3.org/2000/svg" xmlns:xlink="http://www.w3.org/1999/xlink" x="0px" y="0px"
	 viewBox="0 0 283.5 283.5" style="enable-background:new 0 0 283.5 283.5;" xml:space="preserve">
<style type="text/css">
	.st0{fill:none;stroke:#FFFFFF;stroke-width:0.5;stroke-linecap:round;stroke-linejoin:round;stroke-miterlimit:10;}
	.st1{fill:#1E1E1C;}
	.st2{fill:#FFFFFF;}
	.st3{fill:none;}
</style>
<g>
	<path class="st0" d="M83.6,82.4"/>
</g>
<g>
	<ellipse class="st1" cx="143.4" cy="144.1" rx="96.8" ry="100.6"/>
</g>
<g>
	<g>
		<g>
			<path class="st2" d="M191.5,204h-64.1c-0.4,0-0.7-0.3-0.7-0.7v-89.4c0-0.4,0.3-0.7,0.7-0.7h64.1c0.4,0,0.7,0.3,0.7,0.7v89.5
				C192.3,203.7,191.8,204,191.5,204z M128.2,202.5h62.6v-88h-62.6V202.5z"/>
		</g>
	</g>
	<g>
		<g>
			<line class="st3" x1="138.1" y1="134.6" x2="181.7" y2="134.6"/>
		</g>
		<g>
			<path class="st2" d="M181.7,134.9h-43.6c-0.1,0-0.3-0.1-0.3-0.3c0-0.1,0.1-0.3,0.3-0.3h43.6c0.1,0,0.3,0.1,0.3,0.3
				C182,134.8,181.9,134.9,181.7,134.9z"/>
		</g>
	</g>
	<g>
		<g>
			<line class="st3" x1="137.9" y1="144.1" x2="181.4" y2="144.1"/>
		</g>
		<g>
			<path class="st2" d="M181.4,144.4h-43.6c-0.1,0-0.3-0.1-0.3-0.3c0-0.1,0.1-0.3,0.3-0.3h43.6c0.1,0,0.3,0.1,0.3,0.3
				C181.9,144.3,181.7,144.4,181.4,144.4z"/>
		</g>
	</g>
	<g>
		<g>
			<line class="st3" x1="138" y1="152.5" x2="181.6" y2="152.5"/>
		</g>
		<g>
			<path class="st2" d="M181.6,152.8H138c-0.1,0-0.3-0.1-0.3-0.3c0-0.1,0.1-0.3,0.3-0.3h43.6c0.1,0,0.3,0.1,0.3,0.3
				C181.9,152.6,181.7,152.8,181.6,152.8z"/>
		</g>
	</g>
	<g>
		<g>
			<line class="st3" x1="137.9" y1="162" x2="181.3" y2="162"/>
		</g>
		<g>
			<path class="st2" d="M181.3,162.3h-43.6c-0.1,0-0.3-0.1-0.3-0.3c0-0.1,0.1-0.3,0.3-0.3h43.6c0.1,0,0.3,0.1,0.3,0.3
				C181.6,162.1,181.6,162.3,181.3,162.3z"/>
		</g>
	</g>
	<g>
		<g>
			<g>
				<rect x="99" y="99.8" class="st1" width="65.4" height="91.3"/>
			</g>
			<g>
				<path class="st2" d="M165.1,191.8H98.2V99.1h66.8V191.8z M99.7,190.4h63.9v-89.8H99.7V190.4z"/>
			</g>
		</g>
		<g>
			<g>
				<g>
					<line class="st3" x1="109.3" y1="122.5" x2="152.9" y2="122.5"/>
				</g>
				<g>
					<path class="st2" d="M152.9,122.9h-43.6c-0.1,0-0.3-0.1-0.3-0.3s0.1-0.3,0.3-0.3h43.6c0.1,0,0.3,0.1,0.3,0.3
						S153.2,122.9,152.9,122.9z"/>
				</g>
			</g>
			<g>
				<g>
					<line class="st3" x1="109.2" y1="132" x2="152.8" y2="132"/>
				</g>
				<g>
					<path class="st2" d="M152.8,132.4h-43.6c-0.1,0-0.3-0.1-0.3-0.3s0.1-0.3,0.3-0.3h43.6c0.1,0,0.3,0.1,0.3,0.3
						S152.9,132.4,152.8,132.4z"/>
				</g>
			</g>
			<g>
				<g>
					<line class="st3" x1="109.3" y1="140.3" x2="152.8" y2="140.3"/>
				</g>
				<g>
					<path class="st2" d="M152.8,140.8h-43.6c-0.1,0-0.3-0.1-0.3-0.3s0.1-0.3,0.3-0.3h43.6c0.1,0,0.3,0.1,0.3,0.3
						C153.2,140.6,153.1,140.8,152.8,140.8z"/>
				</g>
			</g>
			<g>
				<g>
					<line class="st3" x1="109" y1="150" x2="152.6" y2="150"/>
				</g>
				<g>
					<path class="st2" d="M152.6,150.3H109c-0.1,0-0.3-0.1-0.3-0.3s0.1-0.3,0.3-0.3h43.6c0.1,0,0.3,0.1,0.3,0.3
						S152.8,150.3,152.6,150.3z"/>
				</g>
			</g>
			<g>
				<g>
					<line class="st3" x1="109.3" y1="159.1" x2="152.9" y2="159.1"/>
				</g>
				<g>
					<path class="st2" d="M152.9,159.5h-43.6c-0.1,0-0.3-0.1-0.3-0.3c0-0.1,0.1-0.3,0.3-0.3h43.6c0.1,0,0.3,0.1,0.3,0.3
						C153.2,159.4,153.1,159.5,152.9,159.5z"/>
				</g>
			</g>
			<g>
				<g>
					<line class="st3" x1="109" y1="168.7" x2="152.6" y2="168.7"/>
				</g>
				<g>
					<path class="st2" d="M152.6,169H109c-0.1,0-0.3-0.1-0.3-0.3c0-0.1,0.1-0.3,0.3-0.3h43.6c0.1,0,0.3,0.1,0.3,0.3
						C153.1,168.9,152.8,169,152.6,169z"/>
				</g>
			</g>
			<g>
				<g>
					<line class="st3" x1="109.2" y1="177.1" x2="152.8" y2="177.1"/>
				</g>
				<g>
					<path class="st2" d="M152.8,177.3h-43.6c-0.1,0-0.3-0.1-0.3-0.3c0-0.1,0.1-0.3,0.3-0.3h43.6c0.1,0,0.3,0.1,0.3,0.3
						C153.1,177.2,152.9,177.3,152.8,177.3z"/>
				</g>
			</g>
		</g>
	</g>
</g>
</svg>
