<?xml version="1.0" encoding="utf-8"?>
<!-- Generator: Adobe Illustrator 26.0.0, SVG Export Plug-In . SVG Version: 6.00 Build 0)  -->
<svg version="1.1" id="Livello_1" xmlns="http://www.w3.org/2000/svg" xmlns:xlink="http://www.w3.org/1999/xlink" x="0px" y="0px"
	 viewBox="0 0 283.5 283.5" style="enable-background:new 0 0 283.5 283.5;" xml:space="preserve">
<style type="text/css">
	.st0{fill:#1E1E1C;}
	.st1{fill:#FFFFFF;}
</style>
<g>
	<ellipse class="st0" cx="141.8" cy="137.8" rx="92.8" ry="96.5"/>
</g>
<g>
	<g>
		<g>
			<path class="st1" d="M102,156.7c-5.6,0-10.2-4.6-10.2-10.2c0-5.6,4.6-10.2,10.2-10.2s10.2,4.6,10.2,10.2
				C112.2,152.1,107.6,156.7,102,156.7z M102,137.7c-4.9,0-8.8,4-8.8,8.8c0,4.9,4,8.8,8.8,8.8c4.9,0,8.8-4,8.8-8.8
				C110.8,141.6,106.8,137.7,102,137.7z"/>
		</g>
	</g>
	<g>
		<g>
			<path class="st1" d="M118,175.9h-2.2v-5c0-7.3-6-13.3-13.3-13.3s-13.3,6-13.3,13.3v5H87v-5c0-8.6,7-15.6,15.6-15.6
				s15.6,7,15.6,15.6v5H118z"/>
		</g>
	</g>
	<g>
		<g>
			<path class="st1" d="M139.4,107.7c-5.6,0-10.2-4.6-10.2-10.2s4.6-10.2,10.2-10.2c5.6,0,10.2,4.6,10.2,10.2
				C149.7,103.1,145.1,107.7,139.4,107.7z M139.4,88.6c-4.9,0-8.8,4-8.8,8.8c0,4.9,4,8.8,8.8,8.8c4.9,0,8.8-4,8.8-8.8
				C148.2,92.5,144.3,88.6,139.4,88.6z"/>
		</g>
	</g>
	<g>
		<g>
			<path class="st1" d="M155.4,127h-2.2v-5c0-7.3-6-13.3-13.3-13.3s-13.3,6-13.3,13.3v5h-2.2v-5c0-8.6,7-15.6,15.6-15.6
				s15.6,7,15.6,15.6v5H155.4z"/>
		</g>
	</g>
	<g>
		<g>
			<path class="st1" d="M181.6,158.7c-5.6,0-10.2-4.6-10.2-10.2c0-5.6,4.6-10.2,10.2-10.2s10.2,4.6,10.2,10.2
				C191.9,154.1,187.3,158.7,181.6,158.7z M181.6,139.6c-4.9,0-8.8,4-8.8,8.8c0,4.9,4,8.8,8.8,8.8c4.9,0,8.8-4,8.8-8.8
				C190.5,143.6,186.5,139.6,181.6,139.6z"/>
		</g>
	</g>
	<g>
		<g>
			<path class="st1" d="M197.6,178.1h-2.2v-5c0-7.3-6-13.3-13.3-13.3s-13.3,6-13.3,13.3v5h-2.2v-5c0-8.6,7-15.6,15.6-15.6
				s15.6,7,15.6,15.6v5H197.6z"/>
		</g>
	</g>
</g>
<g>
	<g>
		<g>
			<path class="st1" d="M100.7,121L100.7,121c-0.2,0-0.4-0.2-0.4-0.4c0-0.1,0.4-11.5,11.9-15.3c0.2-0.1,0.4,0,0.4,0.2
				c0.1,0.2,0,0.4-0.2,0.4c-11,3.7-11.4,14.6-11.4,14.7C101.1,120.9,100.9,121,100.7,121z"/>
		</g>
		<g>
			<g>
				<polygon class="st1" points="117.3,104.6 111.1,108.9 112.1,105.8 109.8,103.4 				"/>
			</g>
		</g>
	</g>
</g>
<g>
	<g>
		<g>
			<path class="st1" d="M144.9,171.5c-2.7,0-5.7-0.6-8.9-2.5c-0.2-0.1-0.2-0.3-0.1-0.5c0.1-0.2,0.3-0.2,0.5-0.1
				c9.9,5.8,18.5-0.7,18.5-0.8c0.2-0.1,0.4-0.1,0.5,0.1c0.1,0.2,0.1,0.4-0.1,0.5C155.3,168.1,151,171.5,144.9,171.5z"/>
		</g>
		<g>
			<g>
				<polygon class="st1" points="132.3,165.6 139.6,167.5 136.6,168.8 136.2,172 				"/>
			</g>
		</g>
	</g>
</g>
<g>
	<g>
		<g>
			<path class="st1" d="M181.1,122.9c-0.2,0-0.3-0.2-0.4-0.3c0-0.1-0.4-11-11.4-14.7c-0.2-0.1-0.3-0.3-0.2-0.4
				c0.1-0.2,0.3-0.3,0.4-0.2c11.5,3.8,11.9,15.2,11.9,15.3C181.4,122.7,181.3,122.9,181.1,122.9L181.1,122.9z"/>
		</g>
		<g>
			<g>
				<polygon class="st1" points="164.7,106.5 172.1,105.4 169.8,107.8 170.8,110.9 				"/>
			</g>
		</g>
	</g>
</g>
</svg>
