<?xml version="1.0" encoding="utf-8"?>
<!-- Generator: Adobe Illustrator 26.0.0, SVG Export Plug-In . SVG Version: 6.00 Build 0)  -->
<svg version="1.1" id="Livello_1" xmlns="http://www.w3.org/2000/svg" xmlns:xlink="http://www.w3.org/1999/xlink" x="0px" y="0px"
	 viewBox="0 0 256.3 237.9" style="enable-background:new 0 0 256.3 237.9;" xml:space="preserve">
<style type="text/css">
	.st0{fill:none;stroke:#000000;stroke-miterlimit:10;}
</style>
<g>
	<path class="st0" d="M227.4,74.3"/>
</g>
<g>
	<path d="M34.7,178.6v1.7h-5.2v3.6h4.1v1.7h-4.1v5.4h-2v-12.4H34.7z"/>
	<path d="M43,190.9l-2.8-4.9h-1.5v4.9h-2v-12.4h4.3c0.9,0,1.8,0.2,2.4,0.5c0.7,0.3,1.2,0.8,1.5,1.3c0.3,0.6,0.5,1.2,0.5,1.9
		c0,0.8-0.2,1.5-0.7,2.2c-0.5,0.7-1.2,1.1-2.2,1.3l3.1,5.1H43z M38.6,184.4h2.2c0.8,0,1.3-0.2,1.7-0.6c0.4-0.4,0.6-0.9,0.6-1.5
		c0-0.6-0.2-1.1-0.6-1.5c-0.4-0.4-1-0.5-1.7-0.5h-2.2V184.4z"/>
	<path d="M55.2,188.4h-5.2l-0.9,2.5h-2.1l4.4-12.4h2.3l4.4,12.4h-2.1L55.2,188.4z M54.7,186.7l-2-5.7l-2,5.7H54.7z"/>
	<path d="M70.3,190.9h-2l-6.1-9.2v9.2h-2v-12.4h2l6.1,9.2v-9.2h2V190.9z"/>
	<path d="M73.2,181.5c0.6-1,1.3-1.7,2.3-2.2c1-0.5,2-0.8,3.2-0.8c1.3,0,2.5,0.3,3.5,1c1,0.6,1.8,1.6,2.2,2.7h-2.4
		c-0.3-0.7-0.8-1.1-1.3-1.5c-0.6-0.3-1.2-0.5-2-0.5c-0.8,0-1.5,0.2-2.2,0.6c-0.6,0.4-1.1,0.9-1.5,1.6c-0.4,0.7-0.5,1.5-0.5,2.4
		c0,0.9,0.2,1.7,0.5,2.4c0.4,0.7,0.9,1.2,1.5,1.6c0.6,0.4,1.4,0.6,2.2,0.6c0.7,0,1.4-0.2,2-0.5c0.6-0.3,1-0.8,1.3-1.5h2.4
		c-0.5,1.2-1.2,2.1-2.2,2.7c-1,0.6-2.2,1-3.5,1c-1.2,0-2.2-0.3-3.2-0.8c-1-0.5-1.7-1.3-2.3-2.2s-0.8-2-0.8-3.3
		C72.3,183.5,72.6,182.4,73.2,181.5z"/>
	<path d="M88.8,180.2v3.6H93v1.7h-4.3v3.8h4.8v1.7h-6.8v-12.4h6.8v1.7H88.8z"/>
	<path d="M97.9,190.6c-0.7-0.3-1.2-0.7-1.6-1.2s-0.6-1.2-0.6-1.9h2.2c0,0.5,0.3,1,0.6,1.3c0.4,0.3,0.9,0.5,1.6,0.5
		c0.7,0,1.2-0.2,1.6-0.5c0.4-0.3,0.6-0.8,0.6-1.3c0-0.4-0.1-0.8-0.4-1c-0.2-0.3-0.5-0.5-0.9-0.6c-0.4-0.1-0.9-0.3-1.5-0.5
		c-0.8-0.2-1.5-0.4-2-0.6c-0.5-0.2-0.9-0.6-1.3-1c-0.4-0.5-0.5-1.1-0.5-1.8c0-0.7,0.2-1.3,0.5-1.9s0.9-0.9,1.5-1.2
		c0.6-0.3,1.4-0.4,2.2-0.4c1.2,0,2.2,0.3,2.9,0.9c0.8,0.6,1.2,1.4,1.3,2.5H102c0-0.4-0.2-0.8-0.6-1.2c-0.4-0.3-0.9-0.5-1.5-0.5
		c-0.6,0-1.1,0.1-1.4,0.4c-0.4,0.3-0.6,0.7-0.6,1.3c0,0.4,0.1,0.7,0.3,0.9c0.2,0.2,0.5,0.4,0.9,0.6c0.4,0.1,0.8,0.3,1.5,0.5
		c0.8,0.2,1.5,0.5,2,0.7c0.5,0.2,1,0.6,1.3,1c0.4,0.5,0.5,1.1,0.5,1.9c0,0.6-0.2,1.2-0.5,1.8c-0.3,0.6-0.8,1-1.5,1.3
		c-0.6,0.3-1.4,0.5-2.3,0.5C99.3,191,98.5,190.9,97.9,190.6z"/>
	<path d="M107,181.5c0.6-1,1.3-1.7,2.3-2.2c1-0.5,2-0.8,3.2-0.8c1.3,0,2.5,0.3,3.5,1c1,0.6,1.8,1.6,2.2,2.7h-2.4
		c-0.3-0.7-0.8-1.1-1.3-1.5c-0.6-0.3-1.2-0.5-2-0.5c-0.8,0-1.5,0.2-2.2,0.6c-0.6,0.4-1.1,0.9-1.5,1.6c-0.4,0.7-0.5,1.5-0.5,2.4
		c0,0.9,0.2,1.7,0.5,2.4c0.4,0.7,0.9,1.2,1.5,1.6c0.6,0.4,1.4,0.6,2.2,0.6c0.7,0,1.4-0.2,2-0.5c0.6-0.3,1-0.8,1.3-1.5h2.4
		c-0.5,1.2-1.2,2.1-2.2,2.7c-1,0.6-2.2,1-3.5,1c-1.2,0-2.2-0.3-3.2-0.8c-1-0.5-1.7-1.3-2.3-2.2c-0.6-1-0.8-2-0.8-3.3
		C106.1,183.5,106.4,182.4,107,181.5z"/>
	<path d="M123,190.2c-1-0.5-1.7-1.3-2.3-2.3c-0.6-1-0.8-2.1-0.8-3.3c0-1.2,0.3-2.3,0.8-3.3c0.6-1,1.3-1.7,2.3-2.2
		c1-0.5,2-0.8,3.2-0.8c1.2,0,2.2,0.3,3.2,0.8c1,0.5,1.7,1.3,2.3,2.2c0.6,1,0.8,2,0.8,3.3c0,1.2-0.3,2.3-0.8,3.3
		c-0.6,1-1.3,1.7-2.3,2.3c-1,0.5-2,0.8-3.2,0.8C125,191,123.9,190.8,123,190.2z M128.3,188.7c0.6-0.4,1.1-0.9,1.5-1.6
		c0.4-0.7,0.5-1.5,0.5-2.4c0-0.9-0.2-1.7-0.5-2.4c-0.4-0.7-0.9-1.2-1.5-1.6c-0.6-0.4-1.4-0.6-2.2-0.6s-1.5,0.2-2.2,0.6
		c-0.6,0.4-1.1,0.9-1.5,1.6c-0.4,0.7-0.5,1.5-0.5,2.4c0,0.9,0.2,1.7,0.5,2.4c0.4,0.7,0.9,1.2,1.5,1.6c0.6,0.4,1.4,0.6,2.2,0.6
		S127.7,189.1,128.3,188.7z"/>
	<path d="M147.4,185.6c0.5,0.6,0.7,1.2,0.7,2c0,0.6-0.2,1.2-0.5,1.7c-0.3,0.5-0.8,0.9-1.4,1.2c-0.6,0.3-1.3,0.4-2.2,0.4h-4.9v-12.4
		h4.7c0.8,0,1.6,0.1,2.2,0.4c0.6,0.3,1.1,0.7,1.4,1.1c0.3,0.5,0.5,1,0.5,1.6c0,0.7-0.2,1.3-0.6,1.8c-0.4,0.5-0.9,0.8-1.5,1
		C146.4,184.7,146.9,185,147.4,185.6z M141.1,183.8h2.5c0.7,0,1.2-0.2,1.6-0.5c0.4-0.3,0.6-0.7,0.6-1.3c0-0.6-0.2-1-0.6-1.3
		c-0.4-0.3-0.9-0.5-1.6-0.5h-2.5V183.8z M145.5,188.8c0.4-0.3,0.6-0.8,0.6-1.4c0-0.6-0.2-1.1-0.6-1.4c-0.4-0.4-1-0.5-1.7-0.5h-2.7
		v3.9h2.7C144.5,189.3,145.1,189.1,145.5,188.8z"/>
	<path d="M152.7,190.2c-1-0.5-1.7-1.3-2.3-2.3c-0.6-1-0.8-2.1-0.8-3.3c0-1.2,0.3-2.3,0.8-3.3c0.6-1,1.3-1.7,2.3-2.2
		c1-0.5,2-0.8,3.2-0.8c1.2,0,2.2,0.3,3.2,0.8c1,0.5,1.7,1.3,2.3,2.2c0.6,1,0.8,2,0.8,3.3c0,1.2-0.3,2.3-0.8,3.3
		c-0.6,1-1.3,1.7-2.3,2.3c-1,0.5-2,0.8-3.2,0.8C154.8,191,153.7,190.8,152.7,190.2z M158.1,188.7c0.6-0.4,1.1-0.9,1.5-1.6
		c0.4-0.7,0.5-1.5,0.5-2.4c0-0.9-0.2-1.7-0.5-2.4c-0.4-0.7-0.9-1.2-1.5-1.6c-0.6-0.4-1.4-0.6-2.2-0.6c-0.8,0-1.5,0.2-2.2,0.6
		c-0.6,0.4-1.1,0.9-1.5,1.6c-0.4,0.7-0.5,1.5-0.5,2.4c0,0.9,0.2,1.7,0.5,2.4c0.4,0.7,0.9,1.2,1.5,1.6c0.6,0.4,1.4,0.6,2.2,0.6
		C156.7,189.3,157.5,189.1,158.1,188.7z"/>
	<path d="M172.2,178.6v1.7h-3.3v10.7h-2v-10.7h-3.3v-1.7H172.2z"/>
	<path d="M182.2,178.6v1.7h-3.3v10.7h-2v-10.7h-3.3v-1.7H182.2z"/>
	<path d="M191.7,188.4h-5.2l-0.9,2.5h-2.1l4.4-12.4h2.3l4.4,12.4h-2.1L191.7,188.4z M191.1,186.7l-2-5.7l-2,5.7H191.1z"/>
	<path d="M203.1,190.9l-2.8-4.9h-1.5v4.9h-2v-12.4h4.3c0.9,0,1.8,0.2,2.4,0.5c0.7,0.3,1.2,0.8,1.5,1.3c0.3,0.6,0.5,1.2,0.5,1.9
		c0,0.8-0.2,1.5-0.7,2.2c-0.5,0.7-1.2,1.1-2.2,1.3l3.1,5.1H203.1z M198.7,184.4h2.2c0.8,0,1.3-0.2,1.7-0.6c0.4-0.4,0.6-0.9,0.6-1.5
		c0-0.6-0.2-1.1-0.6-1.5c-0.4-0.4-1-0.5-1.7-0.5h-2.2V184.4z"/>
	<path d="M210.3,190.2c-1-0.5-1.7-1.3-2.3-2.3c-0.6-1-0.8-2.1-0.8-3.3c0-1.2,0.3-2.3,0.8-3.3c0.6-1,1.3-1.7,2.3-2.2
		c1-0.5,2-0.8,3.2-0.8c1.2,0,2.2,0.3,3.2,0.8c1,0.5,1.7,1.3,2.3,2.2c0.6,1,0.8,2,0.8,3.3c0,1.2-0.3,2.3-0.8,3.3
		c-0.6,1-1.3,1.7-2.3,2.3c-1,0.5-2,0.8-3.2,0.8C212.4,191,211.3,190.8,210.3,190.2z M215.7,188.7c0.6-0.4,1.1-0.9,1.5-1.6
		c0.4-0.7,0.5-1.5,0.5-2.4c0-0.9-0.2-1.7-0.5-2.4c-0.4-0.7-0.9-1.2-1.5-1.6c-0.6-0.4-1.4-0.6-2.2-0.6c-0.8,0-1.5,0.2-2.2,0.6
		c-0.6,0.4-1.1,0.9-1.5,1.6c-0.4,0.7-0.5,1.5-0.5,2.4c0,0.9,0.2,1.7,0.5,2.4c0.4,0.7,0.9,1.2,1.5,1.6c0.6,0.4,1.4,0.6,2.2,0.6
		C214.3,189.3,215.1,189.1,215.7,188.7z"/>
	<path d="M14.2,211.9c-0.6-0.3-1-0.7-1.4-1.1s-0.5-1-0.6-1.5h0.4c0.1,0.4,0.2,0.8,0.5,1.2c0.2,0.4,0.6,0.8,1.2,1.1
		c0.5,0.3,1.2,0.4,2,0.4c0.7,0,1.2-0.1,1.8-0.4c0.5-0.3,0.9-0.6,1.2-1c0.3-0.4,0.4-0.9,0.4-1.4c0-0.7-0.2-1.2-0.5-1.6
		c-0.3-0.4-0.7-0.7-1.1-0.9c-0.5-0.2-1.1-0.4-1.8-0.6c-0.8-0.2-1.5-0.4-1.9-0.6c-0.5-0.2-0.9-0.5-1.2-1c-0.3-0.4-0.5-1-0.5-1.8
		c0-0.5,0.2-1.1,0.5-1.5c0.3-0.5,0.7-0.9,1.3-1.1c0.6-0.3,1.2-0.4,1.9-0.4c0.7,0,1.4,0.1,1.9,0.4c0.5,0.3,0.9,0.6,1.3,1
		s0.5,0.8,0.6,1.3h-0.4c-0.1-0.3-0.3-0.7-0.5-1c-0.3-0.4-0.6-0.7-1.1-0.9c-0.5-0.2-1.1-0.4-1.8-0.4c-0.6,0-1.2,0.1-1.7,0.3
		c-0.5,0.2-0.9,0.6-1.2,1c-0.3,0.4-0.5,0.9-0.5,1.5c0,0.7,0.2,1.2,0.5,1.6c0.3,0.4,0.7,0.7,1.2,0.9c0.5,0.2,1.1,0.4,1.8,0.6
		c0.8,0.2,1.4,0.4,1.9,0.6c0.5,0.2,0.9,0.5,1.2,1c0.3,0.4,0.5,1,0.5,1.8c0,0.5-0.1,1-0.4,1.5c-0.3,0.5-0.7,0.9-1.3,1.2
		c-0.6,0.3-1.2,0.5-2,0.5C15.5,212.4,14.8,212.2,14.2,211.9z"/>
	<path d="M23.2,203v6.7c0,0.6,0.1,1,0.2,1.3c0.1,0.3,0.3,0.5,0.6,0.6c0.3,0.1,0.7,0.2,1.2,0.2h1v0.4h-1c-0.8,0-1.4-0.2-1.8-0.6
		c-0.4-0.4-0.5-1-0.5-2V203h-1.6v-0.4h1.6v-2.5h0.4v2.5h3v0.4H23.2z"/>
	<path d="M36.3,202.6v9.6h-0.4v-2.6c-0.2,0.9-0.7,1.6-1.3,2.1c-0.7,0.5-1.5,0.7-2.4,0.7c-1.1,0-2.1-0.3-2.8-1
		c-0.7-0.7-1.1-1.8-1.1-3.2v-5.6h0.3v5.6c0,1.3,0.3,2.2,0.9,2.9c0.6,0.7,1.5,1,2.6,1c1.1,0,2.1-0.4,2.7-1.1c0.7-0.7,1-1.8,1-3.3
		v-5.1H36.3z"/>
	<path d="M39.4,204.8c0.4-0.7,0.9-1.3,1.7-1.7c0.7-0.4,1.5-0.6,2.4-0.6c1.1,0,2,0.3,2.8,0.9c0.8,0.6,1.3,1.3,1.5,2.2v-6.5h0.3v13.2
		h-0.3v-3c-0.3,0.9-0.8,1.6-1.5,2.2c-0.8,0.6-1.7,0.9-2.8,0.9c-0.9,0-1.7-0.2-2.4-0.6c-0.7-0.4-1.3-1-1.7-1.7
		c-0.4-0.7-0.6-1.6-0.6-2.6S39.1,205.6,39.4,204.8z M47.3,205c-0.4-0.7-0.9-1.2-1.5-1.6s-1.4-0.6-2.2-0.6c-0.9,0-1.6,0.2-2.3,0.6
		c-0.6,0.4-1.1,0.9-1.5,1.6c-0.4,0.7-0.5,1.5-0.5,2.5c0,0.9,0.2,1.8,0.5,2.5c0.4,0.7,0.9,1.2,1.5,1.6c0.6,0.4,1.4,0.6,2.3,0.6
		c0.8,0,1.6-0.2,2.2-0.6c0.7-0.4,1.2-0.9,1.5-1.6c0.4-0.7,0.6-1.5,0.6-2.4S47.7,205.7,47.3,205z"/>
	<path d="M51.1,200.1c-0.1-0.1-0.1-0.2-0.1-0.3c0-0.1,0-0.3,0.1-0.3c0.1-0.1,0.2-0.1,0.3-0.1c0.1,0,0.2,0,0.3,0.1
		c0.1,0.1,0.1,0.2,0.1,0.3c0,0.1,0,0.3-0.1,0.3c-0.1,0.1-0.2,0.1-0.3,0.1C51.3,200.2,51.2,200.1,51.1,200.1z M51.6,202.6v9.6h-0.4
		v-9.6H51.6z"/>
	<path d="M56.5,211.8c-0.7-0.4-1.3-1-1.7-1.7c-0.4-0.7-0.6-1.6-0.6-2.6s0.2-1.9,0.6-2.6c0.4-0.7,1-1.3,1.7-1.7
		c0.7-0.4,1.5-0.6,2.4-0.6c0.9,0,1.7,0.2,2.4,0.6c0.7,0.4,1.3,1,1.7,1.7c0.4,0.7,0.6,1.6,0.6,2.6s-0.2,1.9-0.6,2.6
		c-0.4,0.7-1,1.3-1.7,1.7s-1.5,0.6-2.4,0.6C58,212.4,57.2,212.2,56.5,211.8z M61,211.5c0.6-0.3,1.2-0.9,1.6-1.5
		c0.4-0.7,0.6-1.5,0.6-2.6c0-1-0.2-1.9-0.6-2.6c-0.4-0.7-0.9-1.2-1.6-1.5c-0.7-0.3-1.4-0.5-2.1-0.5c-0.8,0-1.5,0.2-2.1,0.5
		c-0.7,0.3-1.2,0.9-1.6,1.5c-0.4,0.7-0.6,1.5-0.6,2.6s0.2,1.9,0.6,2.5c0.4,0.7,0.9,1.2,1.6,1.5c0.7,0.3,1.4,0.5,2.1,0.5
		C59.6,212,60.3,211.9,61,211.5z"/>
	<path d="M77.7,199.7v0.3h-3.6v12.2h-0.4v-12.2h-3.6v-0.3H77.7z"/>
	<path d="M86.5,211.2c0.7-0.5,1.2-1.3,1.3-2.2h0.4c-0.2,1-0.6,1.8-1.4,2.4c-0.8,0.6-1.8,0.9-3,0.9c-0.9,0-1.7-0.2-2.4-0.6
		c-0.7-0.4-1.2-1-1.6-1.7c-0.4-0.7-0.6-1.6-0.6-2.6s0.2-1.9,0.6-2.6c0.4-0.7,0.9-1.3,1.6-1.7c0.7-0.4,1.5-0.6,2.4-0.6
		c0.9,0,1.7,0.2,2.4,0.6c0.7,0.4,1.2,0.9,1.5,1.5c0.3,0.6,0.5,1.3,0.5,2c0,0.4,0,0.7,0,1h-8.7c0,1,0.2,1.8,0.6,2.5
		c0.4,0.7,0.9,1.2,1.6,1.5c0.6,0.3,1.3,0.5,2.1,0.5C84.9,212,85.8,211.8,86.5,211.2z M81.7,203.3c-0.6,0.3-1.2,0.8-1.6,1.5
		c-0.4,0.7-0.6,1.5-0.6,2.5h8.4c0.1-1-0.1-1.8-0.5-2.5c-0.4-0.7-0.9-1.2-1.5-1.5c-0.6-0.3-1.3-0.5-2.1-0.5
		C83,202.8,82.3,203,81.7,203.3z"/>
	<path d="M90.9,204.8c0.4-0.7,0.9-1.3,1.6-1.7c0.7-0.4,1.5-0.6,2.4-0.6c1.2,0,2.2,0.3,3,0.9c0.8,0.6,1.2,1.4,1.4,2.4H99
		c-0.2-0.9-0.6-1.7-1.3-2.2c-0.7-0.5-1.6-0.8-2.7-0.8c-0.8,0-1.5,0.2-2.1,0.5c-0.6,0.3-1.2,0.9-1.6,1.5c-0.4,0.7-0.6,1.5-0.6,2.6
		c0,1,0.2,1.9,0.6,2.6c0.4,0.7,0.9,1.2,1.6,1.5c0.6,0.3,1.4,0.5,2.1,0.5c1.1,0,2-0.3,2.7-0.8c0.7-0.5,1.2-1.3,1.3-2.2h0.4
		c-0.2,1-0.6,1.8-1.4,2.4c-0.8,0.6-1.8,0.9-3,0.9c-0.9,0-1.7-0.2-2.4-0.6c-0.7-0.4-1.2-1-1.6-1.7c-0.4-0.7-0.6-1.6-0.6-2.6
		S90.5,205.6,90.9,204.8z"/>
	<path d="M108.8,203.5c0.7,0.7,1.1,1.8,1.1,3.2v5.6h-0.3v-5.6c0-1.3-0.3-2.2-0.9-2.9c-0.6-0.7-1.5-1-2.6-1c-1.1,0-2.1,0.4-2.7,1.1
		c-0.7,0.7-1,1.8-1,3.3v5.1h-0.4v-9.6h0.4v2.5c0.2-0.9,0.7-1.6,1.3-2c0.7-0.5,1.5-0.7,2.4-0.7C107.2,202.4,108.1,202.8,108.8,203.5z
		"/>
	<path d="M112.7,200.1c-0.1-0.1-0.1-0.2-0.1-0.3c0-0.1,0-0.3,0.1-0.3c0.1-0.1,0.2-0.1,0.3-0.1c0.1,0,0.2,0,0.3,0.1
		c0.1,0.1,0.1,0.2,0.1,0.3c0,0.1,0,0.3-0.1,0.3c-0.1,0.1-0.2,0.1-0.3,0.1C112.9,200.2,112.8,200.1,112.7,200.1z M113.2,202.6v9.6
		h-0.4v-9.6H113.2z"/>
	<path d="M116.4,204.8c0.4-0.7,0.9-1.3,1.6-1.7c0.7-0.4,1.5-0.6,2.4-0.6c1.2,0,2.2,0.3,3,0.9c0.8,0.6,1.2,1.4,1.4,2.4h-0.4
		c-0.2-0.9-0.6-1.7-1.3-2.2c-0.7-0.5-1.6-0.8-2.7-0.8c-0.8,0-1.5,0.2-2.1,0.5c-0.6,0.3-1.2,0.9-1.6,1.5c-0.4,0.7-0.6,1.5-0.6,2.6
		c0,1,0.2,1.9,0.6,2.6c0.4,0.7,0.9,1.2,1.6,1.5c0.6,0.3,1.4,0.5,2.1,0.5c1.1,0,2-0.3,2.7-0.8c0.7-0.5,1.2-1.3,1.3-2.2h0.4
		c-0.2,1-0.6,1.8-1.4,2.4c-0.8,0.6-1.8,0.9-3,0.9c-0.9,0-1.7-0.2-2.4-0.6c-0.7-0.4-1.2-1-1.6-1.7c-0.4-0.7-0.6-1.6-0.6-2.6
		S116,205.6,116.4,204.8z"/>
	<path d="M129.2,211.8c-0.7-0.4-1.3-1-1.7-1.7c-0.4-0.7-0.6-1.6-0.6-2.6s0.2-1.9,0.6-2.6c0.4-0.7,1-1.3,1.7-1.7
		c0.7-0.4,1.5-0.6,2.4-0.6c0.9,0,1.7,0.2,2.4,0.6c0.7,0.4,1.3,1,1.7,1.7c0.4,0.7,0.6,1.6,0.6,2.6s-0.2,1.9-0.6,2.6
		c-0.4,0.7-1,1.3-1.7,1.7s-1.5,0.6-2.4,0.6C130.7,212.4,129.9,212.2,129.2,211.8z M133.8,211.5c0.6-0.3,1.2-0.9,1.6-1.5
		c0.4-0.7,0.6-1.5,0.6-2.6c0-1-0.2-1.9-0.6-2.6c-0.4-0.7-0.9-1.2-1.6-1.5c-0.7-0.3-1.4-0.5-2.1-0.5c-0.8,0-1.5,0.2-2.1,0.5
		c-0.7,0.3-1.2,0.9-1.6,1.5c-0.4,0.7-0.6,1.5-0.6,2.6s0.2,1.9,0.6,2.5c0.4,0.7,0.9,1.2,1.6,1.5c0.7,0.3,1.4,0.5,2.1,0.5
		C132.4,212,133.1,211.9,133.8,211.5z"/>
	<path d="M144.4,199.7v12.5H144v-12.5H144.4z"/>
	<path d="M154.3,203.5c0.7,0.7,1.1,1.8,1.1,3.2v5.6h-0.3v-5.6c0-1.3-0.3-2.2-0.9-2.9c-0.6-0.7-1.5-1-2.6-1c-1.1,0-2.1,0.4-2.7,1.1
		c-0.7,0.7-1,1.8-1,3.3v5.1h-0.4v-9.6h0.4v2.5c0.2-0.9,0.7-1.6,1.3-2c0.7-0.5,1.5-0.7,2.4-0.7C152.7,202.4,153.6,202.8,154.3,203.5z
		"/>
	<path d="M165.4,203.4c0.8,0.6,1.3,1.3,1.5,2.2v-2.9h0.3v10c0,0.9-0.2,1.7-0.6,2.3c-0.4,0.7-0.9,1.2-1.6,1.5
		c-0.6,0.3-1.3,0.5-2.1,0.5c-1.2,0-2.1-0.3-2.9-0.8c-0.8-0.6-1.3-1.3-1.6-2.3h0.4c0.3,0.9,0.8,1.5,1.5,2.1c0.7,0.5,1.6,0.8,2.7,0.8
		c0.7,0,1.4-0.2,2-0.5c0.6-0.3,1.1-0.8,1.4-1.4c0.3-0.6,0.5-1.3,0.5-2.1v-3.3c-0.3,0.9-0.8,1.6-1.5,2.2c-0.8,0.6-1.7,0.9-2.8,0.9
		c-0.9,0-1.7-0.2-2.4-0.6c-0.7-0.4-1.3-1-1.7-1.7c-0.4-0.7-0.6-1.6-0.6-2.6s0.2-1.9,0.6-2.6c0.4-0.7,0.9-1.3,1.7-1.7
		c0.7-0.4,1.5-0.6,2.4-0.6C163.7,202.5,164.6,202.8,165.4,203.4z M166.3,205c-0.4-0.7-0.9-1.2-1.5-1.6s-1.4-0.6-2.2-0.6
		c-0.9,0-1.6,0.2-2.3,0.6c-0.6,0.4-1.1,0.9-1.5,1.6c-0.4,0.7-0.5,1.5-0.5,2.5c0,0.9,0.2,1.8,0.5,2.5c0.4,0.7,0.9,1.2,1.5,1.6
		c0.6,0.4,1.4,0.6,2.3,0.6c0.8,0,1.6-0.2,2.2-0.6c0.7-0.4,1.2-0.9,1.5-1.6c0.4-0.7,0.6-1.5,0.6-2.4S166.7,205.7,166.3,205z"/>
	<path d="M177.1,211.2c0.7-0.5,1.2-1.3,1.3-2.2h0.4c-0.2,1-0.6,1.8-1.4,2.4c-0.8,0.6-1.8,0.9-3,0.9c-0.9,0-1.7-0.2-2.4-0.6
		c-0.7-0.4-1.2-1-1.6-1.7c-0.4-0.7-0.6-1.6-0.6-2.6s0.2-1.9,0.6-2.6c0.4-0.7,0.9-1.3,1.6-1.7c0.7-0.4,1.5-0.6,2.4-0.6
		c0.9,0,1.7,0.2,2.4,0.6c0.7,0.4,1.2,0.9,1.5,1.5c0.3,0.6,0.5,1.3,0.5,2c0,0.4,0,0.7,0,1h-8.7c0,1,0.2,1.8,0.6,2.5
		c0.4,0.7,0.9,1.2,1.6,1.5c0.6,0.3,1.3,0.5,2.1,0.5C175.5,212,176.4,211.8,177.1,211.2z M172.3,203.3c-0.6,0.3-1.2,0.8-1.6,1.5
		c-0.4,0.7-0.6,1.5-0.6,2.5h8.4c0.1-1-0.1-1.8-0.5-2.5c-0.4-0.7-0.9-1.2-1.5-1.5c-0.6-0.3-1.3-0.5-2.1-0.5
		C173.7,202.8,173,203,172.3,203.3z"/>
	<path d="M188.4,203.4c0.8,0.6,1.3,1.3,1.5,2.2v-2.9h0.3v10c0,0.9-0.2,1.7-0.6,2.3s-0.9,1.2-1.6,1.5c-0.6,0.3-1.3,0.5-2.1,0.5
		c-1.2,0-2.1-0.3-2.9-0.8c-0.8-0.6-1.3-1.3-1.6-2.3h0.4c0.3,0.9,0.8,1.5,1.5,2.1c0.7,0.5,1.6,0.8,2.7,0.8c0.7,0,1.4-0.2,2-0.5
		c0.6-0.3,1.1-0.8,1.4-1.4c0.3-0.6,0.5-1.3,0.5-2.1v-3.3c-0.3,0.9-0.8,1.6-1.5,2.2c-0.8,0.6-1.7,0.9-2.8,0.9c-0.9,0-1.7-0.2-2.4-0.6
		c-0.7-0.4-1.3-1-1.7-1.7c-0.4-0.7-0.6-1.6-0.6-2.6s0.2-1.9,0.6-2.6c0.4-0.7,0.9-1.3,1.7-1.7c0.7-0.4,1.5-0.6,2.4-0.6
		C186.7,202.5,187.7,202.8,188.4,203.4z M189.4,205c-0.4-0.7-0.9-1.2-1.5-1.6s-1.4-0.6-2.2-0.6c-0.9,0-1.6,0.2-2.3,0.6
		c-0.6,0.4-1.1,0.9-1.5,1.6c-0.4,0.7-0.5,1.5-0.5,2.5c0,0.9,0.2,1.8,0.5,2.5c0.4,0.7,0.9,1.2,1.5,1.6c0.6,0.4,1.4,0.6,2.3,0.6
		c0.8,0,1.6-0.2,2.2-0.6c0.7-0.4,1.2-0.9,1.5-1.6c0.4-0.7,0.6-1.5,0.6-2.4S189.8,205.7,189.4,205z"/>
	<path d="M200.2,203.5c0.7,0.7,1.1,1.8,1.1,3.2v5.6H201v-5.6c0-1.3-0.3-2.2-0.9-2.9c-0.6-0.7-1.5-1-2.6-1c-1.1,0-2.1,0.4-2.7,1.1
		c-0.7,0.7-1,1.8-1,3.3v5.1h-0.4v-9.6h0.4v2.5c0.2-0.9,0.7-1.6,1.3-2c0.7-0.5,1.5-0.7,2.4-0.7C198.6,202.4,199.5,202.8,200.2,203.5z
		"/>
	<path d="M211.1,211.2c0.7-0.5,1.2-1.3,1.3-2.2h0.4c-0.2,1-0.6,1.8-1.4,2.4c-0.8,0.6-1.8,0.9-3,0.9c-0.9,0-1.7-0.2-2.4-0.6
		c-0.7-0.4-1.2-1-1.6-1.7c-0.4-0.7-0.6-1.6-0.6-2.6s0.2-1.9,0.6-2.6c0.4-0.7,0.9-1.3,1.6-1.7c0.7-0.4,1.5-0.6,2.4-0.6
		c0.9,0,1.7,0.2,2.4,0.6c0.7,0.4,1.2,0.9,1.5,1.5c0.3,0.6,0.5,1.3,0.5,2c0,0.4,0,0.7,0,1h-8.7c0,1,0.2,1.8,0.6,2.5
		c0.4,0.7,0.9,1.2,1.6,1.5c0.6,0.3,1.3,0.5,2.1,0.5C209.5,212,210.4,211.8,211.1,211.2z M206.3,203.3c-0.6,0.3-1.2,0.8-1.6,1.5
		c-0.4,0.7-0.6,1.5-0.6,2.5h8.4c0.1-1-0.1-1.8-0.5-2.5c-0.4-0.7-0.9-1.2-1.5-1.5c-0.6-0.3-1.3-0.5-2.1-0.5
		C207.7,202.8,207,203,206.3,203.3z"/>
	<path d="M219.5,202.4v0.4h-0.2c-1,0-1.9,0.3-2.6,0.9c-0.7,0.6-1.1,1.5-1.1,2.8v5.7h-0.4v-9.6h0.4v2.3
		C216.1,203.3,217.4,202.4,219.5,202.4z"/>
	<path d="M221.3,200.1c-0.1-0.1-0.1-0.2-0.1-0.3c0-0.1,0-0.3,0.1-0.3c0.1-0.1,0.2-0.1,0.3-0.1c0.1,0,0.2,0,0.3,0.1
		c0.1,0.1,0.1,0.2,0.1,0.3c0,0.1,0,0.3-0.1,0.3c-0.1,0.1-0.2,0.1-0.3,0.1C221.5,200.2,221.3,200.1,221.3,200.1z M221.8,202.6v9.6
		h-0.4v-9.6H221.8z"/>
	<path d="M224.9,204.8c0.4-0.7,0.9-1.3,1.7-1.7c0.7-0.4,1.5-0.6,2.4-0.6c1.1,0,2,0.3,2.8,0.9c0.8,0.6,1.3,1.3,1.5,2.2v-2.9h0.3v9.6
		h-0.3v-2.9c-0.3,0.9-0.8,1.6-1.5,2.2c-0.8,0.6-1.7,0.9-2.8,0.9c-0.9,0-1.7-0.2-2.4-0.6c-0.7-0.4-1.3-1-1.7-1.7
		c-0.4-0.7-0.6-1.6-0.6-2.6S224.5,205.6,224.9,204.8z M232.8,205c-0.4-0.7-0.9-1.2-1.5-1.6s-1.4-0.6-2.2-0.6c-0.9,0-1.6,0.2-2.3,0.6
		c-0.6,0.4-1.1,0.9-1.5,1.6c-0.4,0.7-0.5,1.5-0.5,2.5c0,0.9,0.2,1.8,0.5,2.5c0.4,0.7,0.9,1.2,1.5,1.6c0.6,0.4,1.4,0.6,2.3,0.6
		c0.8,0,1.6-0.2,2.2-0.6c0.7-0.4,1.2-0.9,1.5-1.6c0.4-0.7,0.6-1.5,0.6-2.4S233.2,205.7,232.8,205z"/>
</g>
<g>
	<g>
		<path d="M59.3,150.8V63.5h70.6v9.8H68v28.9h60.3v10H68v38.7H59.3z"/>
	</g>
</g>
<g>
	<g>
		<path d="M126.8,63.5l56.8,0c2.2,0,6.8,0.7,8.6,1.9c1.8,1.3,3.3,3.1,4.3,5.3c1.1,2.2,1.6,4.7,1.6,7.3l0,18.6c0,1.1-0.1,2.2-0.3,3.3
			c-0.1,0.5-1.2,0.9-2.4,1.4c-2.1,0.8-2.6,3.4-1,5c1.4,1.3,2.8,2.6,3.2,3.7c0.7,1.9,1.1,3.9,1.1,5.9l0,20.4c0,2.7-0.5,5.1-1.6,7.3
			c-1.1,2.2-2.5,4-4.3,5.3c-1.8,1.3-3.8,1.9-6,1.9l-59.9,0L126.8,63.5z M138.8,101.3l44.8,0c1.1,0,2-0.5,2.7-1.4
			c0.7-0.9,1.1-2,1.1-3.3l0-18.6c0-1.3-0.4-2.4-1.1-3.3c-0.7-0.9-1.6-1.4-2.7-1.4l-44.8,0c-1.1,0-2,0.5-2.7,1.4
			c-0.8,0.9-1.1,2-1.1,3.3l0,18.6c0,1.3,0.4,2.4,1.1,3.3S137.7,101.3,138.8,101.3z M138.8,141l47.9,0c1.1,0,2-0.5,2.8-1.4
			c0.8-0.9,1.1-2,1.1-3.3l0-20.4c0-1.3-0.4-2.4-1.1-3.3c-0.8-0.9-1.7-1.4-2.8-1.4l-47.9,0c-1.1,0-2,0.5-2.7,1.4
			c-0.8,0.9-1.1,2-1.1,3.3l0,20.4c0,1.3,0.4,2.4,1.1,3.3S137.7,141,138.8,141z"/>
	</g>
</g>
<g>
	<polygon points="45.8,75.3 44.4,73.2 126.8,18.8 127.5,19.3 208.3,73.2 206.8,75.3 126.8,21.9 	"/>
</g>
<g>
	<path class="st0" d="M45.9,153.3"/>
</g>
<g>
	<rect x="27.9" y="149.5" width="206.8" height="2.5"/>
</g>
<g>
	<rect x="58" y="46.6" width="2.5" height="122.8"/>
</g>
<g>
	<rect x="196.1" y="46.6" width="2.5" height="126.7"/>
</g>
</svg>
